<svg width="35" height="35" viewBox="0 0 55 55" fill="none" xmlns="http://www.w3.org/2000/svg">
<path d="M51.9572 23.423C49.9444 11.5974 39.6284 2.62341 27.2157 2.62341C14.8031 2.62341 4.48711 11.5974 2.47424 23.423L27.2157 11.0104L51.9572 23.423ZM2.47424 32.1455C4.48711 43.9711 14.8031 52.9451 27.2157 52.9451C39.6284 52.9451 49.9444 43.9711 51.9572 32.1455L27.2157 44.5582L2.47424 32.1455Z" fill="#699635"/>
<path d="M27.2157 11.0104L2.47416 23.4231C2.22255 24.8488 2.05481 26.2746 2.05481 27.7843C2.05481 29.2939 2.22255 30.7197 2.47416 32.1455L27.2157 44.5582L51.9572 32.1455C52.2088 30.7197 52.3765 29.2939 52.3765 27.7843C52.3765 26.2746 52.2088 24.8488 51.9572 23.4231L27.2157 11.0104Z" fill="#FFE62E"/>
<path d="M22.1835 24.7649C19.4997 24.7649 16.9836 25.352 14.7191 26.3584C14.6353 26.8616 14.6353 27.281 14.6353 27.7842C14.6353 34.7454 20.2545 40.3646 27.2157 40.3646C31.9124 40.3646 36.022 37.7647 38.2026 33.9905C35.0994 28.539 29.0608 24.7649 22.1835 24.7649Z" fill="#428BC1"/>
<path d="M39.6284 29.7971C39.7122 29.1262 39.7961 28.4552 39.7961 27.7843C39.7961 20.8231 34.1769 15.2039 27.2157 15.2039C22.2674 15.2039 17.99 18.0554 15.8933 22.2489C17.9062 21.6618 20.0029 21.3263 22.1835 21.3263C29.3124 21.3263 35.6026 24.6811 39.6284 29.7971Z" fill="#428BC1"/>
<path d="M22.1835 21.3263C20.0029 21.3263 17.9062 21.6618 15.8933 22.2489C15.3062 23.5069 14.8869 24.8488 14.7191 26.3585C16.9836 25.352 19.4997 24.7649 22.1835 24.7649C29.0608 24.7649 35.0994 28.4552 38.2026 33.9067C38.9574 32.6487 39.3767 31.2229 39.6284 29.7971C35.6026 24.6811 29.3124 21.3263 22.1835 21.3263Z" fill="white"/>
<path d="M18.8287 28.6229C19.2919 28.6229 19.6674 28.2474 19.6674 27.7843C19.6674 27.3211 19.2919 26.9456 18.8287 26.9456C18.3655 26.9456 17.99 27.3211 17.99 27.7843C17.99 28.2474 18.3655 28.6229 18.8287 28.6229Z" fill="white"/>
<path d="M22.1835 33.6552C22.6467 33.6552 23.0222 33.2797 23.0222 32.8165C23.0222 32.3533 22.6467 31.9778 22.1835 31.9778C21.7203 31.9778 21.3448 32.3533 21.3448 32.8165C21.3448 33.2797 21.7203 33.6552 22.1835 33.6552Z" fill="white"/>
<path d="M27.2156 33.6552C27.6788 33.6552 28.0543 33.2797 28.0543 32.8165C28.0543 32.3533 27.6788 31.9778 27.2156 31.9778C26.7524 31.9778 26.377 32.3533 26.377 32.8165C26.377 33.2797 26.7524 33.6552 27.2156 33.6552Z" fill="white"/>
<path d="M27.2156 37.0099C27.6788 37.0099 28.0543 36.6344 28.0543 36.1712C28.0543 35.708 27.6788 35.3325 27.2156 35.3325C26.7524 35.3325 26.377 35.708 26.377 36.1712C26.377 36.6344 26.7524 37.0099 27.2156 37.0099Z" fill="white"/>
<path d="M33.9252 33.6552C34.3884 33.6552 34.7639 33.2797 34.7639 32.8165C34.7639 32.3533 34.3884 31.9778 33.9252 31.9778C33.462 31.9778 33.0865 32.3533 33.0865 32.8165C33.0865 33.2797 33.462 33.6552 33.9252 33.6552Z" fill="white"/>
<path d="M33.9252 37.0099C34.3884 37.0099 34.7639 36.6344 34.7639 36.1712C34.7639 35.708 34.3884 35.3325 33.9252 35.3325C33.462 35.3325 33.0865 35.708 33.0865 36.1712C33.0865 36.6344 33.462 37.0099 33.9252 37.0099Z" fill="white"/>
<path d="M30.5705 35.3325C31.0337 35.3325 31.4092 34.957 31.4092 34.4938C31.4092 34.0306 31.0337 33.6552 30.5705 33.6552C30.1073 33.6552 29.7318 34.0306 29.7318 34.4938C29.7318 34.957 30.1073 35.3325 30.5705 35.3325Z" fill="white"/>
<path d="M18.8287 31.9777C19.2919 31.9777 19.6674 31.6022 19.6674 31.139C19.6674 30.6758 19.2919 30.3003 18.8287 30.3003C18.3655 30.3003 17.99 30.6758 17.99 31.139C17.99 31.6022 18.3655 31.9777 18.8287 31.9777Z" fill="white"/>
</svg>

